PathFileType  4	(X/Y/Z) C:\Users\antoi\Documents\MyRepositories\mobilecap\ResultsAnalysis
DataRate	CameraRate	NumFrames	NumMarkers	Units	OrigDataRate	OrigDataStartFrame	OrigNumFrames
100.0	100.0	4	51	mm	100.0	89	142
Frame#	Time	r_knee			r_shank_antsup			r_ankle			r_calc			r_5meta			r_toe			L_knee			L_shank_antsup			L_ankle			L_calc			L_5meta			L_toe			r_sh2			r_sh3			r_sh4			L_sh2			L_sh3			r_thigh1			r_thigh2			r_thigh3			r_thigh4			r_thigh5			L_thigh1			L_thigh2			L_thigh3			L_thigh4			r.ASIS			r.PSIS			L.ASIS			L.PSIS			C7			R_Shoulder			L_Shoulder			R_Sternum			L_Sternum			R_humerus			R_elbow_med			R_elbow_lat			R_forearm			R_wrist_radius			R_wrist_ulna			L_humerus			L_elbow_med			L_elbow_lat			L_forearm			L_wrist_radius			L_wrist_ulna			R_HJC			L_HJC			R_HJC_reg			L_HJC_reg			
		X1	Y1	Z1	X2	Y2	Z2	X3	Y3	Z3	X4	Y4	Z4	X5	Y5	Z5	X6	Y6	Z6	X7	Y7	Z7	X8	Y8	Z8	X9	Y9	Z9	X10	Y10	Z10	X11	Y11	Z11	X12	Y12	Z12	X13	Y13	Z13	X14	Y14	Z14	X15	Y15	Z15	X16	Y16	Z16	X17	Y17	Z17	X18	Y18	Z18	X19	Y19	Z19	X20	Y20	Z20	X21	Y21	Z21	X22	Y22	Z22	X23	Y23	Z23	X24	Y24	Z24	X25	Y25	Z25	X26	Y26	Z26	X27	Y27	Z27	X28	Y28	Z28	X29	Y29	Z29	X30	Y30	Z30	X31	Y31	Z31	X32	Y32	Z32	X33	Y33	Z33	X34	Y34	Z34	X35	Y35	Z35	X36	Y36	Z36	X37	Y37	Z37	X38	Y38	Z38	X39	Y39	Z39	X40	Y40	Z40	X41	Y41	Z41	X42	Y42	Z42	X43	Y43	Z43	X44	Y44	Z44	X45	Y45	Z45	X46	Y46	Z46	X47	Y47	Z47	X48	Y48	Z48	X49	Y49	Z49	X50	Y50	Z50	X51	Y51	Z51	

89	0.88000000	1018.60884	495.55593	-76.84284	1019.05920	415.28950	-99.47542	748.64363	210.16283	-129.59145	674.94614	226.93846	-169.51954	794.24510	100.00741	-102.26853	854.55264	100.92611	-151.78670	947.07987	496.11794	-378.14438	973.27146	397.62373	-384.05505	869.53364	99.87752	-371.29588	797.92188	64.83327	-328.67062	973.72147	41.40109	-405.22183	1012.27990	63.16143	-346.87300	927.12085	343.54539	-85.45251	967.67722	471.56141	-66.36377	880.50150	400.67775	-74.15959	886.17959	419.72421	-392.37910	868.19330	298.74387	-400.26241	980.43705	812.45013	-52.60304	1015.21571	703.88422	-55.05822	963.73545	666.33346	-34.10524	871.89293	777.29211	-44.61459	909.65820	667.25854	-53.16371	946.98632	765.62068	-422.85534	972.82824	631.40813	-400.12224	839.24961	747.41267	-387.09387	869.43503	611.12638	-373.80161	960.68336	974.29531	-97.56624	775.91945	995.38499	-183.87498	983.81346	955.39685	-347.49803	773.10415	1002.44053	-285.08836	807.88448	1406.48024	-365.85936	920.72333	1420.27762	-192.99475	870.33088	1293.65003	-520.29300	940.93675	1358.75360	-340.39550	943.58231	1342.01096	-379.11081	943.94929	1315.23337	-90.62248	890.34285	1103.83884	-39.09715	925.78580	1142.29832	12.91282	1036.07064	1048.30023	9.03351	1116.63675	938.59322	11.04801	1101.02657	929.17973	41.47079	895.73888	1170.27600	-545.03457	897.47244	952.64844	-437.04386	914.90917	960.93232	-514.11563	999.42761	883.96231	-504.19566	1068.02912	741.58849	-492.41020	1038.86304	729.40510	-509.02826	891.42712	888.27943	-120.99417	902.98320	880.94537	-327.00867	909.72885	877.29627	-136.27814	905.12036	888.84391	-301.94172	
90	0.89000000	1034.97804	500.02775	-77.12049	1038.45654	420.07708	-99.24324	777.77248	202.14247	-130.41676	703.48595	215.87354	-170.33252	828.23584	94.04795	-103.33537	888.83794	98.22207	-152.56757	948.83465	496.57905	-377.92170	974.08576	397.99993	-383.99559	869.62035	100.27970	-371.46272	798.02258	64.98243	-328.70025	973.72152	41.38837	-405.25797	1012.41777	63.17824	-346.95935	949.55068	344.21642	-85.75340	984.26376	473.96062	-66.88770	900.37664	399.19521	-74.87923	887.08826	420.44136	-392.18708	868.70064	299.50556	-400.16798	992.02353	816.65263	-52.15372	1028.23253	708.54899	-54.70741	977.63924	670.07978	-33.46006	883.79604	779.82119	-43.87554	923.38027	670.54193	-52.31760	953.88001	766.02693	-422.50273	977.12180	631.43071	-399.66529	845.69535	750.09475	-386.98015	873.23007	613.07613	-373.82783	970.97455	977.01713	-98.26557	786.18179	998.31165	-183.91516	993.32700	956.26007	-348.06252	783.03394	1004.78482	-285.07231	818.92780	1408.71112	-366.51841	930.31860	1422.34395	-192.90411	881.82291	1296.64858	-520.85140	951.72023	1361.19425	-340.34996	954.57753	1344.48767	-379.05807	951.98605	1317.07249	-90.24785	897.14006	1105.82794	-40.05213	931.79454	1144.09253	12.79926	1041.52180	1049.31013	11.17608	1121.26831	938.89157	15.33274	1104.79847	929.68489	45.49692	907.78074	1173.41229	-545.65161	912.25776	956.15554	-436.70249	929.68743	964.12938	-513.81416	1016.01450	889.10932	-502.97721	1088.19297	748.48958	-489.62527	1059.29344	735.55434	-506.09123	901.37698	891.13727	-120.75207	912.15386	882.36034	-326.75011	919.61892	879.85789	-136.19853	914.46265	890.45812	-301.86968	
91	0.90000000	1050.75481	504.28023	-77.32727	1057.25665	424.80369	-98.69817	807.47401	193.91196	-131.05060	732.88084	204.28321	-171.15001	862.83093	88.23654	-103.83605	923.70729	95.61863	-152.69618	950.62965	497.00545	-377.75970	974.93854	398.35198	-383.99128	869.70479	100.65870	-371.60049	798.14170	65.13410	-328.72941	973.72433	41.37606	-405.29991	1012.55978	63.19245	-347.04670	971.63176	344.91989	-85.77344	1000.13346	476.25701	-67.64811	919.86345	397.60457	-75.89492	888.02456	421.11599	-392.03495	869.22558	300.26983	-400.08039	1003.57768	820.62149	-51.73150	1041.01556	712.96638	-54.34724	991.23160	673.72041	-32.72051	895.60090	782.29742	-43.02867	936.81809	673.69587	-51.29324	960.68049	766.28140	-422.22101	981.33716	631.38095	-399.31498	852.15734	752.57225	-386.79041	877.04440	614.91071	-373.89318	981.45911	979.57039	-99.06322	796.51672	1001.16122	-183.94986	1002.82642	956.91298	-348.69957	792.95874	1006.99448	-285.03378	829.97812	1410.80328	-367.00388	939.93895	1424.17488	-192.63259	893.43832	1299.58423	-521.26297	962.49743	1363.44908	-340.12674	965.63872	1346.80344	-378.82166	960.08842	1318.69739	-89.73760	903.95871	1107.62568	-40.75800	937.84249	1145.72100	12.89246	1046.88140	1050.17067	13.40476	1125.81555	939.10108	19.52963	1108.63540	930.15118	49.51637	920.04403	1176.51870	-546.17578	926.88127	959.58601	-436.41293	944.41223	967.30056	-513.51689	1032.52871	894.28371	-501.65376	1108.22268	755.50872	-486.68782	1079.63798	741.81889	-503.02493	911.43422	893.87042	-120.53976	921.28197	883.60202	-326.51414	929.59704	882.34049	-136.11390	923.76514	891.89853	-301.77071	
92	0.91000000	1065.93560	508.25808	-77.48303	1075.45215	429.35667	-97.95069	837.70643	185.59588	-131.45683	763.09921	192.28797	-171.90756	897.97676	82.69347	-103.75633	959.04506	93.20534	-152.19830	952.46593	497.37437	-377.65444	975.86049	398.65496	-384.03423	869.79623	101.01187	-371.71066	798.26303	65.28696	-328.75432	973.73344	41.36374	-405.34640	1012.69516	63.19330	-347.13000	993.42025	345.54056	-85.55538	1015.35426	478.28609	-68.57974	939.04492	395.77924	-77.08572	889.02262	421.74330	-391.90589	869.79368	301.02497	-399.98557	1015.11098	824.30963	-51.37226	1053.59411	717.08592	-54.00579	1004.52642	677.22169	-31.91385	907.36006	784.68794	-42.09823	949.97708	676.63047	-50.12851	967.36054	766.36392	-422.02247	985.46669	631.23758	-399.08026	858.60647	754.78466	-386.47713	880.87582	616.61651	-373.91547	992.12125	981.88112	-99.94682	806.91791	1003.86285	-183.97768	1012.29438	957.33313	-349.39677	802.88443	1009.02235	-284.97435	841.03206	1412.73386	-367.31895	949.58446	1425.72941	-192.17600	905.19398	1302.40325	-521.51816	973.27049	1365.46085	-339.71186	976.77238	1348.90955	-378.39471	968.27289	1320.06345	-89.09681	910.78626	1109.21063	-41.19380	943.93802	1147.14327	13.17230	1052.16140	1050.82866	15.72111	1130.25663	939.14908	23.63111	1112.57562	930.53959	53.54395	932.54630	1179.53988	-546.57388	941.35040	962.86112	-436.19880	959.13434	970.39632	-513.22519	1048.98481	899.42012	-500.22744	1128.10988	762.57330	-483.61076	1099.86803	748.14282	-499.85254	921.59030	896.40570	-120.36795	930.37016	884.63812	-326.31041	939.64945	884.67140	-136.04147	933.03433	893.13066	-301.65699	
